<svg xmlns="http://www.w3.org/2000/svg" version="1.0" viewBox="0 0 512.000000 512.000000">
<g transform="translate(0.000000,512.000000) scale(0.100000,-0.100000)" fill="#000" stroke="none">
<path d="M1515 5102 c-108 -37 -217 -128 -264 -220 -76 -149 -63 -339 33 -479 41 -61 137 -134 213 -164 77 -30 223 -32 302 -5 l53 18 146 -145 145 -145 -16 -54 c-37 -123 -29 -235 25 -346 37 -79 124 -168 196 -201 l52 -24 0 -174 0 -173 -49 -24 c-26 -14 -61 -36 -77 -49 l-29 -24 -215 92 -215 92 -7 99 c-3 54 -13 119 -22 144 -73 199 -286 325 -495 293 -228 -35 -390 -221 -391 -448 0 -178 96 -333 259 -413 66 -33 83 -37 171 -40 114 -5 176 10 261 61 l56 34 227 -96 227 -96 4 -73 c2 -40 11 -95 20 -123 l17 -51 -110 -110 -109 -110 -37 12 c-218 72 -457 -21 -558 -216 l-33 -64 -205 0 -205 0 -23 50 c-36 78 -122 164 -206 205 -231 115 -504 22 -617 -210 -33 -68 -34 -73 -34 -195 0 -122 1 -127 34 -195 104 -212 343 -312 564 -236 30 11 72 30 93 44 56 35 136 124 163 180 l23 47 209 0 209 0 26 -52 c36 -71 113 -149 184 -187 l60 -32 0 -208 0 -209 -55 -27 c-70 -36 -164 -133 -198 -206 -107 -227 -9 -499 218 -610 68 -33 73 -34 195 -34 122 0 127 1 195 34 290 142 350 527 116 744 -33 30 -80 64 -105 77 l-46 22 0 208 0 209 60 32 c120 64 207 191 231 335 11 68 3 138 -26 239 -5 16 18 43 103 128 l109 108 57 -16 c31 -9 87 -18 123 -20 l67 -3 97 -228 c83 -196 95 -231 84 -244 -8 -8 -29 -47 -47 -85 -32 -67 -33 -75 -33 -191 0 -118 1 -121 37 -195 200 -405 792 -314 861 132 32 209 -94 422 -293 495 -25 9 -90 19 -144 22 l-99 7 -92 215 -92 215 24 29 c13 16 35 51 49 77 l24 49 173 0 174 0 24 -52 c33 -72 122 -159 201 -196 111 -54 223 -62 346 -25 l54 16 145 -145 146 -146 -17 -47 c-73 -215 29 -463 229 -556 238 -112 507 -17 618 218 27 58 32 82 35 165 4 78 0 110 -17 167 -70 231 -332 366 -569 292 l-60 -18 -146 146 -146 146 17 45 c23 63 24 239 0 300 l-17 45 146 146 146 146 60 -18 c66 -21 177 -25 248 -8 104 24 205 95 265 185 59 88 77 160 73 280 -3 92 -6 107 -40 175 -118 238 -388 325 -630 203 -110 -56 -205 -188 -229 -319 -13 -69 -6 -162 17 -230 l17 -47 -145 -145 -145 -145 -54 15 c-130 36 -239 28 -349 -25 -79 -38 -165 -123 -199 -196 l-24 -52 -174 0 -173 0 -26 52 c-36 71 -113 149 -184 187 l-60 32 0 173 0 173 52 24 c72 33 159 122 196 201 55 114 62 222 25 346 l-16 54 145 145 146 146 47 -17 c296 -100 605 121 605 434 0 174 -98 329 -259 408 -67 33 -83 37 -172 40 -79 4 -111 0 -168 -17 -231 -70 -366 -332 -292 -569 l18 -60 -146 -146 -146 -146 -45 17 c-62 23 -238 23 -300 0 l-45 -17 -146 146 -146 146 18 60 c26 82 25 199 -2 280 -44 134 -157 248 -285 288 -84 26 -218 27 -289 2z m213 -312 c50 -30 74 -76 69 -131 -11 -130 -161 -181 -246 -84 -65 75 -46 174 44 223 32 18 97 14 133 -8z m1802 5 c91 -47 104 -164 26 -233 -49 -43 -98 -49 -154 -20 -76 39 -104 126 -62 196 40 65 125 91 190 57z m-917 -899 c98 -42 121 -162 43 -233 -61 -56 -131 -56 -193 0 -76 70 -55 190 42 233 39 17 68 17 108 0z m2133 -311 c61 -40 82 -130 44 -193 -61 -99 -194 -94 -248 10 -28 55 -23 104 16 150 49 58 129 72 188 33z m-3329 -294 c136 -62 88 -271 -62 -271 -151 0 -196 203 -61 270 50 25 70 25 123 1z m1216 -608 c90 -45 88 -201 -2 -248 -98 -50 -211 16 -211 123 0 72 30 114 97 137 40 14 70 11 116 -12z m1228 -19 c106 -102 13 -274 -131 -243 -68 15 -123 106 -106 174 4 14 21 42 39 61 54 59 141 63 198 8z m-3324 -819 c35 -23 66 -98 57 -138 -10 -49 -43 -87 -90 -109 -36 -16 -50 -17 -81 -8 -73 20 -113 70 -113 140 0 118 125 181 227 115z m1268 4 c63 -38 85 -131 45 -196 -46 -77 -156 -89 -221 -24 -75 76 -46 200 56 236 44 15 75 11 120 -16z m2933 -69 c88 -54 96 -176 16 -239 -58 -45 -141 -35 -192 23 -43 49 -49 97 -20 154 39 77 126 105 196 62z m-1507 -301 c29 -14 46 -32 60 -62 24 -53 24 -71 -1 -122 -51 -105 -190 -111 -250 -12 -42 68 -14 162 60 199 46 23 82 23 131 -3z m-1419 -911 c112 -79 55 -258 -82 -258 -70 0 -120 40 -140 113 -19 65 35 151 105 170 32 8 87 -3 117 -25z"/>
</g>
</svg>
