<svg xmlns="http://www.w3.org/2000/svg" xmlns:xlink="http://www.w3.org/1999/xlink" xml:space="preserve" width="924" height="924" viewBox="0 0 924 924"><rect width="924" height="924" fill="#ffffff" x="0" y="0"/><g fill="#000000">
<g transform="translate(280,56) scale(4.8066666666667)"><rect width="6" height="6"/></g>
<g transform="translate(308,56) scale(4.8066666666667)"><rect width="6" height="6"/></g>
<g transform="translate(336,56) scale(4.8066666666667)"><rect width="6" height="6"/></g>
<g transform="translate(364,56) scale(4.8066666666667)"><rect width="6" height="6"/></g>
<g transform="translate(420,56) scale(4.8066666666667)"><rect width="6" height="6"/></g>
<g transform="translate(448,56) scale(4.8066666666667)"><rect width="6" height="6"/></g>
<g transform="translate(476,56) scale(4.8066666666667)"><rect width="6" height="6"/></g>
<g transform="translate(532,56) scale(4.8066666666667)"><rect width="6" height="6"/></g>
<g transform="translate(560,56) scale(4.8066666666667)"><rect width="6" height="6"/></g>
<g transform="translate(616,56) scale(4.8066666666667)"><rect width="6" height="6"/></g>
<g transform="translate(308,84) scale(4.8066666666667)"><rect width="6" height="6"/></g>
<g transform="translate(336,84) scale(4.8066666666667)"><rect width="6" height="6"/></g>
<g transform="translate(364,84) scale(4.8066666666667)"><rect width="6" height="6"/></g>
<g transform="translate(392,84) scale(4.8066666666667)"><rect width="6" height="6"/></g>
<g transform="translate(420,84) scale(4.8066666666667)"><rect width="6" height="6"/></g>
<g transform="translate(448,84) scale(4.8066666666667)"><rect width="6" height="6"/></g>
<g transform="translate(504,84) scale(4.8066666666667)"><rect width="6" height="6"/></g>
<g transform="translate(588,84) scale(4.8066666666667)"><rect width="6" height="6"/></g>
<g transform="translate(420,112) scale(4.8066666666667)"><rect width="6" height="6"/></g>
<g transform="translate(476,112) scale(4.8066666666667)"><rect width="6" height="6"/></g>
<g transform="translate(504,112) scale(4.8066666666667)"><rect width="6" height="6"/></g>
<g transform="translate(588,112) scale(4.8066666666667)"><rect width="6" height="6"/></g>
<g transform="translate(616,112) scale(4.8066666666667)"><rect width="6" height="6"/></g>
<g transform="translate(420,140) scale(4.8066666666667)"><rect width="6" height="6"/></g>
<g transform="translate(476,140) scale(4.8066666666667)"><rect width="6" height="6"/></g>
<g transform="translate(504,140) scale(4.8066666666667)"><rect width="6" height="6"/></g>
<g transform="translate(532,140) scale(4.8066666666667)"><rect width="6" height="6"/></g>
<g transform="translate(588,140) scale(4.8066666666667)"><rect width="6" height="6"/></g>
<g transform="translate(280,168) scale(4.8066666666667)"><rect width="6" height="6"/></g>
<g transform="translate(308,168) scale(4.8066666666667)"><rect width="6" height="6"/></g>
<g transform="translate(336,168) scale(4.8066666666667)"><rect width="6" height="6"/></g>
<g transform="translate(364,168) scale(4.8066666666667)"><rect width="6" height="6"/></g>
<g transform="translate(392,168) scale(4.8066666666667)"><rect width="6" height="6"/></g>
<g transform="translate(420,168) scale(4.8066666666667)"><rect width="6" height="6"/></g>
<g transform="translate(476,168) scale(4.8066666666667)"><rect width="6" height="6"/></g>
<g transform="translate(504,168) scale(4.8066666666667)"><rect width="6" height="6"/></g>
<g transform="translate(560,168) scale(4.8066666666667)"><rect width="6" height="6"/></g>
<g transform="translate(588,168) scale(4.8066666666667)"><rect width="6" height="6"/></g>
<g transform="translate(280,196) scale(4.8066666666667)"><rect width="6" height="6"/></g>
<g transform="translate(308,196) scale(4.8066666666667)"><rect width="6" height="6"/></g>
<g transform="translate(364,196) scale(4.8066666666667)"><rect width="6" height="6"/></g>
<g transform="translate(392,196) scale(4.8066666666667)"><rect width="6" height="6"/></g>
<g transform="translate(448,196) scale(4.8066666666667)"><rect width="6" height="6"/></g>
<g transform="translate(476,196) scale(4.8066666666667)"><rect width="6" height="6"/></g>
<g transform="translate(504,196) scale(4.8066666666667)"><rect width="6" height="6"/></g>
<g transform="translate(560,196) scale(4.8066666666667)"><rect width="6" height="6"/></g>
<g transform="translate(616,196) scale(4.8066666666667)"><rect width="6" height="6"/></g>
<g transform="translate(280,224) scale(4.8066666666667)"><rect width="6" height="6"/></g>
<g transform="translate(336,224) scale(4.8066666666667)"><rect width="6" height="6"/></g>
<g transform="translate(392,224) scale(4.8066666666667)"><rect width="6" height="6"/></g>
<g transform="translate(448,224) scale(4.8066666666667)"><rect width="6" height="6"/></g>
<g transform="translate(504,224) scale(4.8066666666667)"><rect width="6" height="6"/></g>
<g transform="translate(560,224) scale(4.8066666666667)"><rect width="6" height="6"/></g>
<g transform="translate(616,224) scale(4.8066666666667)"><rect width="6" height="6"/></g>
<g transform="translate(308,252) scale(4.8066666666667)"><rect width="6" height="6"/></g>
<g transform="translate(364,252) scale(4.8066666666667)"><rect width="6" height="6"/></g>
<g transform="translate(504,252) scale(4.8066666666667)"><rect width="6" height="6"/></g>
<g transform="translate(616,252) scale(4.8066666666667)"><rect width="6" height="6"/></g>
<g transform="translate(84,280) scale(4.8066666666667)"><rect width="6" height="6"/></g>
<g transform="translate(112,280) scale(4.8066666666667)"><rect width="6" height="6"/></g>
<g transform="translate(140,280) scale(4.8066666666667)"><rect width="6" height="6"/></g>
<g transform="translate(168,280) scale(4.8066666666667)"><rect width="6" height="6"/></g>
<g transform="translate(196,280) scale(4.8066666666667)"><rect width="6" height="6"/></g>
<g transform="translate(224,280) scale(4.8066666666667)"><rect width="6" height="6"/></g>
<g transform="translate(252,280) scale(4.8066666666667)"><rect width="6" height="6"/></g>
<g transform="translate(308,280) scale(4.8066666666667)"><rect width="6" height="6"/></g>
<g transform="translate(364,280) scale(4.8066666666667)"><rect width="6" height="6"/></g>
<g transform="translate(420,280) scale(4.8066666666667)"><rect width="6" height="6"/></g>
<g transform="translate(448,280) scale(4.8066666666667)"><rect width="6" height="6"/></g>
<g transform="translate(560,280) scale(4.8066666666667)"><rect width="6" height="6"/></g>
<g transform="translate(616,280) scale(4.8066666666667)"><rect width="6" height="6"/></g>
<g transform="translate(700,280) scale(4.8066666666667)"><rect width="6" height="6"/></g>
<g transform="translate(728,280) scale(4.8066666666667)"><rect width="6" height="6"/></g>
<g transform="translate(840,280) scale(4.8066666666667)"><rect width="6" height="6"/></g>
<g transform="translate(84,308) scale(4.8066666666667)"><rect width="6" height="6"/></g>
<g transform="translate(280,308) scale(4.8066666666667)"><rect width="6" height="6"/></g>
<g transform="translate(308,308) scale(4.8066666666667)"><rect width="6" height="6"/></g>
<g transform="translate(392,308) scale(4.8066666666667)"><rect width="6" height="6"/></g>
<g transform="translate(420,308) scale(4.8066666666667)"><rect width="6" height="6"/></g>
<g transform="translate(476,308) scale(4.8066666666667)"><rect width="6" height="6"/></g>
<g transform="translate(532,308) scale(4.8066666666667)"><rect width="6" height="6"/></g>
<g transform="translate(644,308) scale(4.8066666666667)"><rect width="6" height="6"/></g>
<g transform="translate(672,308) scale(4.8066666666667)"><rect width="6" height="6"/></g>
<g transform="translate(700,308) scale(4.8066666666667)"><rect width="6" height="6"/></g>
<g transform="translate(728,308) scale(4.8066666666667)"><rect width="6" height="6"/></g>
<g transform="translate(756,308) scale(4.8066666666667)"><rect width="6" height="6"/></g>
<g transform="translate(840,308) scale(4.8066666666667)"><rect width="6" height="6"/></g>
<g transform="translate(84,336) scale(4.8066666666667)"><rect width="6" height="6"/></g>
<g transform="translate(140,336) scale(4.8066666666667)"><rect width="6" height="6"/></g>
<g transform="translate(168,336) scale(4.8066666666667)"><rect width="6" height="6"/></g>
<g transform="translate(224,336) scale(4.8066666666667)"><rect width="6" height="6"/></g>
<g transform="translate(280,336) scale(4.8066666666667)"><rect width="6" height="6"/></g>
<g transform="translate(336,336) scale(4.8066666666667)"><rect width="6" height="6"/></g>
<g transform="translate(364,336) scale(4.8066666666667)"><rect width="6" height="6"/></g>
<g transform="translate(392,336) scale(4.8066666666667)"><rect width="6" height="6"/></g>
<g transform="translate(420,336) scale(4.8066666666667)"><rect width="6" height="6"/></g>
<g transform="translate(448,336) scale(4.8066666666667)"><rect width="6" height="6"/></g>
<g transform="translate(504,336) scale(4.8066666666667)"><rect width="6" height="6"/></g>
<g transform="translate(532,336) scale(4.8066666666667)"><rect width="6" height="6"/></g>
<g transform="translate(616,336) scale(4.8066666666667)"><rect width="6" height="6"/></g>
<g transform="translate(644,336) scale(4.8066666666667)"><rect width="6" height="6"/></g>
<g transform="translate(672,336) scale(4.8066666666667)"><rect width="6" height="6"/></g>
<g transform="translate(140,364) scale(4.8066666666667)"><rect width="6" height="6"/></g>
<g transform="translate(196,364) scale(4.8066666666667)"><rect width="6" height="6"/></g>
<g transform="translate(252,364) scale(4.8066666666667)"><rect width="6" height="6"/></g>
<g transform="translate(280,364) scale(4.8066666666667)"><rect width="6" height="6"/></g>
<g transform="translate(364,364) scale(4.8066666666667)"><rect width="6" height="6"/></g>
<g transform="translate(420,364) scale(4.8066666666667)"><rect width="6" height="6"/></g>
<g transform="translate(448,364) scale(4.8066666666667)"><rect width="6" height="6"/></g>
<g transform="translate(644,364) scale(4.8066666666667)"><rect width="6" height="6"/></g>
<g transform="translate(672,364) scale(4.8066666666667)"><rect width="6" height="6"/></g>
<g transform="translate(700,364) scale(4.8066666666667)"><rect width="6" height="6"/></g>
<g transform="translate(756,364) scale(4.8066666666667)"><rect width="6" height="6"/></g>
<g transform="translate(812,364) scale(4.8066666666667)"><rect width="6" height="6"/></g>
<g transform="translate(56,392) scale(4.8066666666667)"><rect width="6" height="6"/></g>
<g transform="translate(84,392) scale(4.8066666666667)"><rect width="6" height="6"/></g>
<g transform="translate(112,392) scale(4.8066666666667)"><rect width="6" height="6"/></g>
<g transform="translate(196,392) scale(4.8066666666667)"><rect width="6" height="6"/></g>
<g transform="translate(224,392) scale(4.8066666666667)"><rect width="6" height="6"/></g>
<g transform="translate(364,392) scale(4.8066666666667)"><rect width="6" height="6"/></g>
<g transform="translate(420,392) scale(4.8066666666667)"><rect width="6" height="6"/></g>
<g transform="translate(448,392) scale(4.8066666666667)"><rect width="6" height="6"/></g>
<g transform="translate(504,392) scale(4.8066666666667)"><rect width="6" height="6"/></g>
<g transform="translate(532,392) scale(4.8066666666667)"><rect width="6" height="6"/></g>
<g transform="translate(616,392) scale(4.8066666666667)"><rect width="6" height="6"/></g>
<g transform="translate(644,392) scale(4.8066666666667)"><rect width="6" height="6"/></g>
<g transform="translate(700,392) scale(4.8066666666667)"><rect width="6" height="6"/></g>
<g transform="translate(784,392) scale(4.8066666666667)"><rect width="6" height="6"/></g>
<g transform="translate(812,392) scale(4.8066666666667)"><rect width="6" height="6"/></g>
<g transform="translate(840,392) scale(4.8066666666667)"><rect width="6" height="6"/></g>
<g transform="translate(84,420) scale(4.8066666666667)"><rect width="6" height="6"/></g>
<g transform="translate(112,420) scale(4.8066666666667)"><rect width="6" height="6"/></g>
<g transform="translate(140,420) scale(4.8066666666667)"><rect width="6" height="6"/></g>
<g transform="translate(168,420) scale(4.8066666666667)"><rect width="6" height="6"/></g>
<g transform="translate(196,420) scale(4.8066666666667)"><rect width="6" height="6"/></g>
<g transform="translate(252,420) scale(4.8066666666667)"><rect width="6" height="6"/></g>
<g transform="translate(392,420) scale(4.8066666666667)"><rect width="6" height="6"/></g>
<g transform="translate(532,420) scale(4.8066666666667)"><rect width="6" height="6"/></g>
<g transform="translate(588,420) scale(4.8066666666667)"><rect width="6" height="6"/></g>
<g transform="translate(616,420) scale(4.8066666666667)"><rect width="6" height="6"/></g>
<g transform="translate(644,420) scale(4.8066666666667)"><rect width="6" height="6"/></g>
<g transform="translate(672,420) scale(4.8066666666667)"><rect width="6" height="6"/></g>
<g transform="translate(728,420) scale(4.8066666666667)"><rect width="6" height="6"/></g>
<g transform="translate(756,420) scale(4.8066666666667)"><rect width="6" height="6"/></g>
<g transform="translate(840,420) scale(4.8066666666667)"><rect width="6" height="6"/></g>
<g transform="translate(84,448) scale(4.8066666666667)"><rect width="6" height="6"/></g>
<g transform="translate(140,448) scale(4.8066666666667)"><rect width="6" height="6"/></g>
<g transform="translate(196,448) scale(4.8066666666667)"><rect width="6" height="6"/></g>
<g transform="translate(224,448) scale(4.8066666666667)"><rect width="6" height="6"/></g>
<g transform="translate(280,448) scale(4.8066666666667)"><rect width="6" height="6"/></g>
<g transform="translate(308,448) scale(4.8066666666667)"><rect width="6" height="6"/></g>
<g transform="translate(336,448) scale(4.8066666666667)"><rect width="6" height="6"/></g>
<g transform="translate(392,448) scale(4.8066666666667)"><rect width="6" height="6"/></g>
<g transform="translate(476,448) scale(4.8066666666667)"><rect width="6" height="6"/></g>
<g transform="translate(532,448) scale(4.8066666666667)"><rect width="6" height="6"/></g>
<g transform="translate(616,448) scale(4.8066666666667)"><rect width="6" height="6"/></g>
<g transform="translate(644,448) scale(4.8066666666667)"><rect width="6" height="6"/></g>
<g transform="translate(672,448) scale(4.8066666666667)"><rect width="6" height="6"/></g>
<g transform="translate(700,448) scale(4.8066666666667)"><rect width="6" height="6"/></g>
<g transform="translate(56,476) scale(4.8066666666667)"><rect width="6" height="6"/></g>
<g transform="translate(280,476) scale(4.8066666666667)"><rect width="6" height="6"/></g>
<g transform="translate(308,476) scale(4.8066666666667)"><rect width="6" height="6"/></g>
<g transform="translate(336,476) scale(4.8066666666667)"><rect width="6" height="6"/></g>
<g transform="translate(392,476) scale(4.8066666666667)"><rect width="6" height="6"/></g>
<g transform="translate(420,476) scale(4.8066666666667)"><rect width="6" height="6"/></g>
<g transform="translate(504,476) scale(4.8066666666667)"><rect width="6" height="6"/></g>
<g transform="translate(532,476) scale(4.8066666666667)"><rect width="6" height="6"/></g>
<g transform="translate(560,476) scale(4.8066666666667)"><rect width="6" height="6"/></g>
<g transform="translate(588,476) scale(4.8066666666667)"><rect width="6" height="6"/></g>
<g transform="translate(616,476) scale(4.8066666666667)"><rect width="6" height="6"/></g>
<g transform="translate(728,476) scale(4.8066666666667)"><rect width="6" height="6"/></g>
<g transform="translate(756,476) scale(4.8066666666667)"><rect width="6" height="6"/></g>
<g transform="translate(56,504) scale(4.8066666666667)"><rect width="6" height="6"/></g>
<g transform="translate(112,504) scale(4.8066666666667)"><rect width="6" height="6"/></g>
<g transform="translate(168,504) scale(4.8066666666667)"><rect width="6" height="6"/></g>
<g transform="translate(224,504) scale(4.8066666666667)"><rect width="6" height="6"/></g>
<g transform="translate(252,504) scale(4.8066666666667)"><rect width="6" height="6"/></g>
<g transform="translate(336,504) scale(4.8066666666667)"><rect width="6" height="6"/></g>
<g transform="translate(364,504) scale(4.8066666666667)"><rect width="6" height="6"/></g>
<g transform="translate(392,504) scale(4.8066666666667)"><rect width="6" height="6"/></g>
<g transform="translate(420,504) scale(4.8066666666667)"><rect width="6" height="6"/></g>
<g transform="translate(448,504) scale(4.8066666666667)"><rect width="6" height="6"/></g>
<g transform="translate(504,504) scale(4.8066666666667)"><rect width="6" height="6"/></g>
<g transform="translate(588,504) scale(4.8066666666667)"><rect width="6" height="6"/></g>
<g transform="translate(756,504) scale(4.8066666666667)"><rect width="6" height="6"/></g>
<g transform="translate(784,504) scale(4.8066666666667)"><rect width="6" height="6"/></g>
<g transform="translate(812,504) scale(4.8066666666667)"><rect width="6" height="6"/></g>
<g transform="translate(840,504) scale(4.8066666666667)"><rect width="6" height="6"/></g>
<g transform="translate(56,532) scale(4.8066666666667)"><rect width="6" height="6"/></g>
<g transform="translate(84,532) scale(4.8066666666667)"><rect width="6" height="6"/></g>
<g transform="translate(112,532) scale(4.8066666666667)"><rect width="6" height="6"/></g>
<g transform="translate(140,532) scale(4.8066666666667)"><rect width="6" height="6"/></g>
<g transform="translate(196,532) scale(4.8066666666667)"><rect width="6" height="6"/></g>
<g transform="translate(280,532) scale(4.8066666666667)"><rect width="6" height="6"/></g>
<g transform="translate(308,532) scale(4.8066666666667)"><rect width="6" height="6"/></g>
<g transform="translate(336,532) scale(4.8066666666667)"><rect width="6" height="6"/></g>
<g transform="translate(392,532) scale(4.8066666666667)"><rect width="6" height="6"/></g>
<g transform="translate(420,532) scale(4.8066666666667)"><rect width="6" height="6"/></g>
<g transform="translate(476,532) scale(4.8066666666667)"><rect width="6" height="6"/></g>
<g transform="translate(560,532) scale(4.8066666666667)"><rect width="6" height="6"/></g>
<g transform="translate(616,532) scale(4.8066666666667)"><rect width="6" height="6"/></g>
<g transform="translate(644,532) scale(4.8066666666667)"><rect width="6" height="6"/></g>
<g transform="translate(672,532) scale(4.8066666666667)"><rect width="6" height="6"/></g>
<g transform="translate(728,532) scale(4.8066666666667)"><rect width="6" height="6"/></g>
<g transform="translate(784,532) scale(4.8066666666667)"><rect width="6" height="6"/></g>
<g transform="translate(812,532) scale(4.8066666666667)"><rect width="6" height="6"/></g>
<g transform="translate(840,532) scale(4.8066666666667)"><rect width="6" height="6"/></g>
<g transform="translate(56,560) scale(4.8066666666667)"><rect width="6" height="6"/></g>
<g transform="translate(168,560) scale(4.8066666666667)"><rect width="6" height="6"/></g>
<g transform="translate(196,560) scale(4.8066666666667)"><rect width="6" height="6"/></g>
<g transform="translate(224,560) scale(4.8066666666667)"><rect width="6" height="6"/></g>
<g transform="translate(252,560) scale(4.8066666666667)"><rect width="6" height="6"/></g>
<g transform="translate(280,560) scale(4.8066666666667)"><rect width="6" height="6"/></g>
<g transform="translate(308,560) scale(4.8066666666667)"><rect width="6" height="6"/></g>
<g transform="translate(392,560) scale(4.8066666666667)"><rect width="6" height="6"/></g>
<g transform="translate(420,560) scale(4.8066666666667)"><rect width="6" height="6"/></g>
<g transform="translate(476,560) scale(4.8066666666667)"><rect width="6" height="6"/></g>
<g transform="translate(504,560) scale(4.8066666666667)"><rect width="6" height="6"/></g>
<g transform="translate(532,560) scale(4.8066666666667)"><rect width="6" height="6"/></g>
<g transform="translate(560,560) scale(4.8066666666667)"><rect width="6" height="6"/></g>
<g transform="translate(588,560) scale(4.8066666666667)"><rect width="6" height="6"/></g>
<g transform="translate(672,560) scale(4.8066666666667)"><rect width="6" height="6"/></g>
<g transform="translate(56,588) scale(4.8066666666667)"><rect width="6" height="6"/></g>
<g transform="translate(364,588) scale(4.8066666666667)"><rect width="6" height="6"/></g>
<g transform="translate(392,588) scale(4.8066666666667)"><rect width="6" height="6"/></g>
<g transform="translate(476,588) scale(4.8066666666667)"><rect width="6" height="6"/></g>
<g transform="translate(560,588) scale(4.8066666666667)"><rect width="6" height="6"/></g>
<g transform="translate(588,588) scale(4.8066666666667)"><rect width="6" height="6"/></g>
<g transform="translate(616,588) scale(4.8066666666667)"><rect width="6" height="6"/></g>
<g transform="translate(672,588) scale(4.8066666666667)"><rect width="6" height="6"/></g>
<g transform="translate(728,588) scale(4.8066666666667)"><rect width="6" height="6"/></g>
<g transform="translate(756,588) scale(4.8066666666667)"><rect width="6" height="6"/></g>
<g transform="translate(812,588) scale(4.8066666666667)"><rect width="6" height="6"/></g>
<g transform="translate(56,616) scale(4.8066666666667)"><rect width="6" height="6"/></g>
<g transform="translate(168,616) scale(4.8066666666667)"><rect width="6" height="6"/></g>
<g transform="translate(196,616) scale(4.8066666666667)"><rect width="6" height="6"/></g>
<g transform="translate(224,616) scale(4.8066666666667)"><rect width="6" height="6"/></g>
<g transform="translate(252,616) scale(4.8066666666667)"><rect width="6" height="6"/></g>
<g transform="translate(280,616) scale(4.8066666666667)"><rect width="6" height="6"/></g>
<g transform="translate(308,616) scale(4.8066666666667)"><rect width="6" height="6"/></g>
<g transform="translate(364,616) scale(4.8066666666667)"><rect width="6" height="6"/></g>
<g transform="translate(392,616) scale(4.8066666666667)"><rect width="6" height="6"/></g>
<g transform="translate(420,616) scale(4.8066666666667)"><rect width="6" height="6"/></g>
<g transform="translate(448,616) scale(4.8066666666667)"><rect width="6" height="6"/></g>
<g transform="translate(476,616) scale(4.8066666666667)"><rect width="6" height="6"/></g>
<g transform="translate(532,616) scale(4.8066666666667)"><rect width="6" height="6"/></g>
<g transform="translate(588,616) scale(4.8066666666667)"><rect width="6" height="6"/></g>
<g transform="translate(616,616) scale(4.8066666666667)"><rect width="6" height="6"/></g>
<g transform="translate(644,616) scale(4.8066666666667)"><rect width="6" height="6"/></g>
<g transform="translate(672,616) scale(4.8066666666667)"><rect width="6" height="6"/></g>
<g transform="translate(700,616) scale(4.8066666666667)"><rect width="6" height="6"/></g>
<g transform="translate(728,616) scale(4.8066666666667)"><rect width="6" height="6"/></g>
<g transform="translate(756,616) scale(4.8066666666667)"><rect width="6" height="6"/></g>
<g transform="translate(784,616) scale(4.8066666666667)"><rect width="6" height="6"/></g>
<g transform="translate(812,616) scale(4.8066666666667)"><rect width="6" height="6"/></g>
<g transform="translate(840,616) scale(4.8066666666667)"><rect width="6" height="6"/></g>
<g transform="translate(280,644) scale(4.8066666666667)"><rect width="6" height="6"/></g>
<g transform="translate(308,644) scale(4.8066666666667)"><rect width="6" height="6"/></g>
<g transform="translate(336,644) scale(4.8066666666667)"><rect width="6" height="6"/></g>
<g transform="translate(420,644) scale(4.8066666666667)"><rect width="6" height="6"/></g>
<g transform="translate(504,644) scale(4.8066666666667)"><rect width="6" height="6"/></g>
<g transform="translate(560,644) scale(4.8066666666667)"><rect width="6" height="6"/></g>
<g transform="translate(616,644) scale(4.8066666666667)"><rect width="6" height="6"/></g>
<g transform="translate(728,644) scale(4.8066666666667)"><rect width="6" height="6"/></g>
<g transform="translate(756,644) scale(4.8066666666667)"><rect width="6" height="6"/></g>
<g transform="translate(812,644) scale(4.8066666666667)"><rect width="6" height="6"/></g>
<g transform="translate(840,644) scale(4.8066666666667)"><rect width="6" height="6"/></g>
<g transform="translate(280,672) scale(4.8066666666667)"><rect width="6" height="6"/></g>
<g transform="translate(308,672) scale(4.8066666666667)"><rect width="6" height="6"/></g>
<g transform="translate(336,672) scale(4.8066666666667)"><rect width="6" height="6"/></g>
<g transform="translate(392,672) scale(4.8066666666667)"><rect width="6" height="6"/></g>
<g transform="translate(476,672) scale(4.8066666666667)"><rect width="6" height="6"/></g>
<g transform="translate(560,672) scale(4.8066666666667)"><rect width="6" height="6"/></g>
<g transform="translate(588,672) scale(4.8066666666667)"><rect width="6" height="6"/></g>
<g transform="translate(616,672) scale(4.8066666666667)"><rect width="6" height="6"/></g>
<g transform="translate(672,672) scale(4.8066666666667)"><rect width="6" height="6"/></g>
<g transform="translate(728,672) scale(4.8066666666667)"><rect width="6" height="6"/></g>
<g transform="translate(280,700) scale(4.8066666666667)"><rect width="6" height="6"/></g>
<g transform="translate(336,700) scale(4.8066666666667)"><rect width="6" height="6"/></g>
<g transform="translate(364,700) scale(4.8066666666667)"><rect width="6" height="6"/></g>
<g transform="translate(392,700) scale(4.8066666666667)"><rect width="6" height="6"/></g>
<g transform="translate(420,700) scale(4.8066666666667)"><rect width="6" height="6"/></g>
<g transform="translate(504,700) scale(4.8066666666667)"><rect width="6" height="6"/></g>
<g transform="translate(588,700) scale(4.8066666666667)"><rect width="6" height="6"/></g>
<g transform="translate(616,700) scale(4.8066666666667)"><rect width="6" height="6"/></g>
<g transform="translate(728,700) scale(4.8066666666667)"><rect width="6" height="6"/></g>
<g transform="translate(756,700) scale(4.8066666666667)"><rect width="6" height="6"/></g>
<g transform="translate(840,700) scale(4.8066666666667)"><rect width="6" height="6"/></g>
<g transform="translate(280,728) scale(4.8066666666667)"><rect width="6" height="6"/></g>
<g transform="translate(336,728) scale(4.8066666666667)"><rect width="6" height="6"/></g>
<g transform="translate(392,728) scale(4.8066666666667)"><rect width="6" height="6"/></g>
<g transform="translate(420,728) scale(4.8066666666667)"><rect width="6" height="6"/></g>
<g transform="translate(448,728) scale(4.8066666666667)"><rect width="6" height="6"/></g>
<g transform="translate(560,728) scale(4.8066666666667)"><rect width="6" height="6"/></g>
<g transform="translate(616,728) scale(4.8066666666667)"><rect width="6" height="6"/></g>
<g transform="translate(644,728) scale(4.8066666666667)"><rect width="6" height="6"/></g>
<g transform="translate(672,728) scale(4.8066666666667)"><rect width="6" height="6"/></g>
<g transform="translate(700,728) scale(4.8066666666667)"><rect width="6" height="6"/></g>
<g transform="translate(728,728) scale(4.8066666666667)"><rect width="6" height="6"/></g>
<g transform="translate(756,728) scale(4.8066666666667)"><rect width="6" height="6"/></g>
<g transform="translate(784,728) scale(4.8066666666667)"><rect width="6" height="6"/></g>
<g transform="translate(280,756) scale(4.8066666666667)"><rect width="6" height="6"/></g>
<g transform="translate(308,756) scale(4.8066666666667)"><rect width="6" height="6"/></g>
<g transform="translate(392,756) scale(4.8066666666667)"><rect width="6" height="6"/></g>
<g transform="translate(420,756) scale(4.8066666666667)"><rect width="6" height="6"/></g>
<g transform="translate(476,756) scale(4.8066666666667)"><rect width="6" height="6"/></g>
<g transform="translate(504,756) scale(4.8066666666667)"><rect width="6" height="6"/></g>
<g transform="translate(588,756) scale(4.8066666666667)"><rect width="6" height="6"/></g>
<g transform="translate(616,756) scale(4.8066666666667)"><rect width="6" height="6"/></g>
<g transform="translate(644,756) scale(4.8066666666667)"><rect width="6" height="6"/></g>
<g transform="translate(700,756) scale(4.8066666666667)"><rect width="6" height="6"/></g>
<g transform="translate(756,756) scale(4.8066666666667)"><rect width="6" height="6"/></g>
<g transform="translate(280,784) scale(4.8066666666667)"><rect width="6" height="6"/></g>
<g transform="translate(308,784) scale(4.8066666666667)"><rect width="6" height="6"/></g>
<g transform="translate(336,784) scale(4.8066666666667)"><rect width="6" height="6"/></g>
<g transform="translate(392,784) scale(4.8066666666667)"><rect width="6" height="6"/></g>
<g transform="translate(448,784) scale(4.8066666666667)"><rect width="6" height="6"/></g>
<g transform="translate(532,784) scale(4.8066666666667)"><rect width="6" height="6"/></g>
<g transform="translate(588,784) scale(4.8066666666667)"><rect width="6" height="6"/></g>
<g transform="translate(616,784) scale(4.8066666666667)"><rect width="6" height="6"/></g>
<g transform="translate(644,784) scale(4.8066666666667)"><rect width="6" height="6"/></g>
<g transform="translate(672,784) scale(4.8066666666667)"><rect width="6" height="6"/></g>
<g transform="translate(700,784) scale(4.8066666666667)"><rect width="6" height="6"/></g>
<g transform="translate(728,784) scale(4.8066666666667)"><rect width="6" height="6"/></g>
<g transform="translate(756,784) scale(4.8066666666667)"><rect width="6" height="6"/></g>
<g transform="translate(812,784) scale(4.8066666666667)"><rect width="6" height="6"/></g>
<g transform="translate(280,812) scale(4.8066666666667)"><rect width="6" height="6"/></g>
<g transform="translate(308,812) scale(4.8066666666667)"><rect width="6" height="6"/></g>
<g transform="translate(336,812) scale(4.8066666666667)"><rect width="6" height="6"/></g>
<g transform="translate(364,812) scale(4.8066666666667)"><rect width="6" height="6"/></g>
<g transform="translate(420,812) scale(4.8066666666667)"><rect width="6" height="6"/></g>
<g transform="translate(448,812) scale(4.8066666666667)"><rect width="6" height="6"/></g>
<g transform="translate(504,812) scale(4.8066666666667)"><rect width="6" height="6"/></g>
<g transform="translate(672,812) scale(4.8066666666667)"><rect width="6" height="6"/></g>
<g transform="translate(728,812) scale(4.8066666666667)"><rect width="6" height="6"/></g>
<g transform="translate(756,812) scale(4.8066666666667)"><rect width="6" height="6"/></g>
<g transform="translate(812,812) scale(4.8066666666667)"><rect width="6" height="6"/></g>
<g transform="translate(336,840) scale(4.8066666666667)"><rect width="6" height="6"/></g>
<g transform="translate(364,840) scale(4.8066666666667)"><rect width="6" height="6"/></g>
<g transform="translate(420,840) scale(4.8066666666667)"><rect width="6" height="6"/></g>
<g transform="translate(448,840) scale(4.8066666666667)"><rect width="6" height="6"/></g>
<g transform="translate(532,840) scale(4.8066666666667)"><rect width="6" height="6"/></g>
<g transform="translate(560,840) scale(4.8066666666667)"><rect width="6" height="6"/></g>
<g transform="translate(672,840) scale(4.8066666666667)"><rect width="6" height="6"/></g>
<g transform="translate(728,840) scale(4.8066666666667)"><rect width="6" height="6"/></g>
<g transform="translate(784,840) scale(4.8066666666667)"><rect width="6" height="6"/></g>
<g transform="translate(56,56)"><g transform="scale(14)"><path d="M0,0v14h14V0H0z M12,12H2V2h10V12z"/></g></g>
<g transform="translate(672,56)"><g transform="scale(14)"><path d="M0,0v14h14V0H0z M12,12H2V2h10V12z"/></g></g>
<g transform="translate(56,672)"><g transform="scale(14)"><path d="M0,0v14h14V0H0z M12,12H2V2h10V12z"/></g></g>
<g transform="translate(112,112)"><g transform="scale(14)"><rect width="6" height="6"/></g></g>
<g transform="translate(728,112)"><g transform="scale(14)"><rect width="6" height="6"/></g></g>
<g transform="translate(112,728)"><g transform="scale(14)"><rect width="6" height="6"/></g></g>
</g></svg>