<?xml version="1.0" encoding="UTF-8"?>
<!DOCTYPE svg PUBLIC "-//W3C//DTD SVG 1.1//EN" "http://www.w3.org/Graphics/SVG/1.1/DTD/svg11.dtd">
<svg xmlns="http://www.w3.org/2000/svg" version="1.1" width="512px" height="512px" style="shape-rendering:geometricPrecision; text-rendering:geometricPrecision; image-rendering:optimizeQuality; fill-rule:evenodd; clip-rule:evenodd" xmlns:xlink="http://www.w3.org/1999/xlink">
<g><path style="opacity:0.997" fill="#fea1fe" d="M 238.5,-0.5 C 244.167,-0.5 249.833,-0.5 255.5,-0.5C 255.5,30.8333 255.5,62.1667 255.5,93.5C 220.741,94.7616 195.908,111.095 181,142.5C 168.724,177.892 175.89,208.725 202.5,235C 217.855,247.673 235.522,254.173 255.5,254.5C 255.5,267.5 255.5,280.5 255.5,293.5C 235.5,293.5 215.5,293.5 195.5,293.5C 195.5,303.5 195.5,313.5 195.5,323.5C 215.5,323.5 235.5,323.5 255.5,323.5C 255.5,352.167 255.5,380.833 255.5,409.5C 246.306,410.198 240.139,414.864 237,423.5C 235.752,441.129 235.086,458.795 235,476.5C 229.984,494.682 218.484,506.348 200.5,511.5C 193.833,511.5 187.167,511.5 180.5,511.5C 162.507,506.34 151.007,494.673 146,476.5C 144.809,457.525 144.142,438.525 144,419.5C 142.073,414.572 138.573,411.406 133.5,410C 100.88,411.006 77.7131,396.839 64,367.5C 62.6866,363.58 61.6866,359.58 61,355.5C 59.7832,343.197 59.2832,330.863 59.5,318.5C 75.2436,321.441 89.077,317.775 101,307.5C 103.838,303.828 106.171,299.828 108,295.5C 109.059,239.532 110.059,183.532 111,127.5C 119.753,70.0857 150.919,30.2524 204.5,8C 215.73,4.19244 227.063,1.35911 238.5,-0.5 Z"/></g>
<g><path style="opacity:1" fill="#dd78ef" d="M 255.5,-0.5 C 261.167,-0.5 266.833,-0.5 272.5,-0.5C 329.751,8.57389 369.584,39.9072 392,93.5C 395.926,104.538 398.593,115.871 400,127.5C 400.941,183.532 401.941,239.532 403,295.5C 407.745,307.793 416.579,315.293 429.5,318C 436.826,318.5 444.159,318.666 451.5,318.5C 451.717,330.863 451.217,343.197 450,355.5C 444.135,383.031 427.635,400.531 400.5,408C 392.876,409.096 385.209,409.762 377.5,410C 372.427,411.406 368.927,414.572 367,419.5C 366.858,438.525 366.191,457.525 365,476.5C 359.984,494.682 348.484,506.348 330.5,511.5C 323.833,511.5 317.167,511.5 310.5,511.5C 292.507,506.34 281.007,494.673 276,476.5C 275.914,458.795 275.248,441.129 274,423.5C 270.861,414.864 264.694,410.198 255.5,409.5C 255.5,380.833 255.5,352.167 255.5,323.5C 275.5,323.5 295.5,323.5 315.5,323.5C 315.5,313.5 315.5,303.5 315.5,293.5C 295.5,293.5 275.5,293.5 255.5,293.5C 255.5,280.5 255.5,267.5 255.5,254.5C 298.331,251.506 324.831,229.173 335,187.5C 339.353,150.708 325.853,122.541 294.5,103C 282.322,96.4155 269.322,93.2489 255.5,93.5C 255.5,62.1667 255.5,30.8333 255.5,-0.5 Z"/></g>
<g><path style="opacity:1" fill="#dd78ef" d="M 255.5,93.5 C 255.5,103.5 255.5,113.5 255.5,123.5C 224.742,125.923 207.742,142.59 204.5,173.5C 206.695,200.192 220.695,217.025 246.5,224C 249.482,224.498 252.482,224.665 255.5,224.5C 255.5,234.5 255.5,244.5 255.5,254.5C 235.522,254.173 217.855,247.673 202.5,235C 175.89,208.725 168.724,177.892 181,142.5C 195.908,111.095 220.741,94.7616 255.5,93.5 Z"/></g>
<g><path style="opacity:1" fill="#a061e2" d="M 255.5,93.5 C 269.322,93.2489 282.322,96.4155 294.5,103C 325.853,122.541 339.353,150.708 335,187.5C 324.831,229.173 298.331,251.506 255.5,254.5C 255.5,244.5 255.5,234.5 255.5,224.5C 286.592,221.242 303.259,204.075 305.5,173C 304.387,151.437 294.053,136.103 274.5,127C 268.337,124.867 262.004,123.701 255.5,123.5C 255.5,113.5 255.5,103.5 255.5,93.5 Z"/></g>
<g><path style="opacity:1" fill="#d8f0fa" d="M 255.5,123.5 C 255.5,135.167 255.5,146.833 255.5,158.5C 250.5,158.5 245.5,158.5 240.5,158.5C 240.5,168.5 240.5,178.5 240.5,188.5C 245.305,189.487 250.305,189.821 255.5,189.5C 255.5,201.167 255.5,212.833 255.5,224.5C 252.482,224.665 249.482,224.498 246.5,224C 220.695,217.025 206.695,200.192 204.5,173.5C 207.742,142.59 224.742,125.923 255.5,123.5 Z"/></g>
<g><path style="opacity:1" fill="#d4e5f5" d="M 255.5,123.5 C 262.004,123.701 268.337,124.867 274.5,127C 294.053,136.103 304.387,151.437 305.5,173C 303.259,204.075 286.592,221.242 255.5,224.5C 255.5,212.833 255.5,201.167 255.5,189.5C 250.305,189.821 245.305,189.487 240.5,188.5C 245.5,188.5 250.5,188.5 255.5,188.5C 260.5,188.5 265.5,188.5 270.5,188.5C 270.5,178.833 270.5,169.167 270.5,159.5C 265.695,158.513 260.695,158.179 255.5,158.5C 255.5,146.833 255.5,135.167 255.5,123.5 Z"/></g>
<g><path style="opacity:1" fill="#5a236a" d="M 255.5,158.5 C 260.695,158.179 265.695,158.513 270.5,159.5C 265.5,159.5 260.5,159.5 255.5,159.5C 255.5,169.167 255.5,178.833 255.5,188.5C 250.5,188.5 245.5,188.5 240.5,188.5C 240.5,178.5 240.5,168.5 240.5,158.5C 245.5,158.5 250.5,158.5 255.5,158.5 Z"/></g>
<g><path style="opacity:1" fill="#491050" d="M 270.5,159.5 C 270.5,169.167 270.5,178.833 270.5,188.5C 265.5,188.5 260.5,188.5 255.5,188.5C 255.5,178.833 255.5,169.167 255.5,159.5C 260.5,159.5 265.5,159.5 270.5,159.5 Z"/></g>
<g><path style="opacity:1" fill="#dd78ef" d="M 255.5,293.5 C 255.5,303.5 255.5,313.5 255.5,323.5C 235.5,323.5 215.5,323.5 195.5,323.5C 195.5,313.5 195.5,303.5 195.5,293.5C 215.5,293.5 235.5,293.5 255.5,293.5 Z"/></g>
<g><path style="opacity:1" fill="#a061e2" d="M 255.5,293.5 C 275.5,293.5 295.5,293.5 315.5,293.5C 315.5,303.5 315.5,313.5 315.5,323.5C 295.5,323.5 275.5,323.5 255.5,323.5C 255.5,313.5 255.5,303.5 255.5,293.5 Z"/></g>
</svg>
