<svg xmlns="http://www.w3.org/2000/svg" version="1.0" width="512.000000pt" height="512.000000pt" viewBox="0 0 512.000000 512.000000" preserveAspectRatio="xMidYMid meet">
<g transform="translate(0.000000,512.000000) scale(0.100000,-0.100000)" fill="#000000" stroke="none">
<path d="M835 5103 c-83 -43 -120 -113 -113 -217 3 -50 10 -73 32 -105 36 -52 112 -91 177 -91 l48 0 111 -212 c60 -117 140 -272 177 -343 l66 -131 -45 -79 c-95 -167 -160 -373 -180 -576 l-12 -116 -110 -6 c-248 -12 -479 -114 -666 -293 -140 -134 -231 -280 -287 -461 -25 -82 -27 -100 -27 -273 0 -173 2 -191 27 -275 39 -127 105 -256 182 -355 36 -47 109 -145 161 -217 113 -157 205 -245 307 -297 85 -43 87 -50 30 -116 -41 -48 -66 -62 -170 -95 -43 -13 -98 -37 -123 -53 -63 -40 -126 -114 -148 -176 -11 -28 -39 -165 -62 -304 l-43 -253 20 -27 20 -27 2437 -3 c2425 -2 2436 -2 2456 18 30 30 25 75 -25 207 -63 164 -91 216 -140 262 -53 49 -96 71 -207 106 -99 31 -152 70 -179 129 -28 63 -25 81 24 115 61 43 135 124 207 226 35 50 89 122 120 161 111 139 174 270 206 424 23 114 15 345 -15 445 -94 317 -342 561 -656 646 -103 28 -344 32 -443 7 -58 -14 -62 -14 -57 1 52 166 68 301 62 509 -8 282 -54 441 -207 717 l-22 40 187 338 186 337 48 0 c65 0 141 39 177 92 37 53 46 165 19 219 -41 81 -103 119 -196 119 -73 0 -116 -18 -163 -70 -41 -46 -59 -103 -54 -174 l3 -51 -322 -194 -322 -193 -28 20 c-95 67 -303 149 -466 184 -136 28 -396 31 -537 5 -162 -30 -358 -105 -506 -192 l-31 -19 -309 195 -309 195 3 51 c2 27 -2 69 -8 92 -13 49 -66 112 -114 135 -44 21 -151 20 -191 -1z m613 -673 l164 -103 -78 -78 c-43 -44 -81 -79 -84 -79 -4 0 -37 60 -75 133 -37 72 -84 161 -104 197 -34 62 -34 64 -11 49 14 -9 99 -62 188 -119z m2406 98 c-25 -48 -194 -352 -199 -356 -2 -3 -41 32 -85 77 l-82 81 34 19 c18 11 103 63 188 115 85 52 156 95 158 95 1 1 -5 -14 -14 -31z m-1154 -38 c425 -52 807 -323 995 -705 98 -200 135 -358 135 -580 0 -194 -36 -367 -110 -532 -41 -90 -535 -777 -605 -842 -164 -149 -345 -221 -559 -221 -177 0 -314 41 -454 134 -101 67 -171 143 -310 335 -69 97 -160 219 -202 271 -165 209 -247 374 -296 600 -26 119 -26 391 0 510 144 662 755 1110 1406 1030z m-1578 -1535 c30 -185 114 -400 215 -552 l42 -63 -35 -26 c-84 -64 -192 -251 -234 -406 -25 -92 -17 -139 30 -187 40 -39 88 -46 199 -27 149 26 256 78 333 164 l36 40 27 -39 27 -38 -27 -47 c-15 -25 -55 -83 -89 -128 -34 -44 -104 -139 -155 -209 -94 -130 -155 -188 -241 -232 -189 -96 -405 -72 -576 63 -28 22 -74 73 -104 113 -29 41 -104 142 -166 224 -177 237 -223 347 -231 557 -6 145 4 214 48 329 124 322 466 564 804 568 l80 1 17 -105z m3223 -370 c154 -33 269 -96 385 -214 98 -100 140 -166 183 -288 26 -75 31 -106 35 -214 7 -211 -40 -348 -184 -535 -42 -55 -107 -143 -146 -197 -42 -59 -92 -116 -126 -142 -146 -115 -338 -136 -500 -55 -87 44 -134 90 -237 234 -52 72 -118 160 -145 196 -65 83 -115 186 -141 290 -17 67 -20 105 -17 204 l4 121 182 255 c198 276 198 275 328 320 124 42 256 51 379 25z m-1020 -1045 c32 -98 91 -203 177 -315 46 -60 109 -146 140 -190 64 -92 152 -179 221 -219 26 -15 47 -33 47 -39 0 -7 -9 -30 -19 -53 -27 -58 -83 -101 -155 -117 l-61 -14 -17 101 c-28 164 -65 242 -164 338 -61 61 -133 98 -264 138 -191 59 -277 122 -320 236 -29 79 -27 86 28 108 82 33 200 108 270 172 l67 62 16 -77 c8 -42 24 -101 34 -131z m-1319 61 c38 -26 105 -62 147 -81 42 -19 77 -40 77 -47 0 -33 -45 -126 -80 -165 -49 -56 -126 -97 -260 -138 -58 -18 -127 -43 -155 -57 -69 -35 -167 -132 -204 -204 -18 -32 -38 -59 -46 -59 -32 0 -123 42 -147 68 -14 15 -35 44 -45 66 l-20 39 70 35 c96 50 192 143 294 286 48 66 113 154 145 195 32 40 68 90 81 111 l22 38 25 -19 c14 -11 57 -41 96 -68z m724 -200 c30 -118 114 -231 224 -303 37 -23 108 -54 182 -78 143 -45 191 -68 244 -116 70 -64 87 -114 141 -426 27 -156 49 -291 49 -300 0 -16 -14 -18 -145 -18 l-145 0 0 140 c0 127 -2 142 -20 160 -27 27 -93 27 -120 0 -18 -18 -20 -33 -20 -160 l0 -140 -560 0 -560 0 0 140 c0 127 -2 142 -20 160 -27 27 -93 27 -120 0 -18 -18 -20 -33 -20 -160 l0 -140 -145 0 c-132 0 -145 2 -145 18 0 10 22 147 50 305 52 302 63 337 125 406 47 51 111 84 257 131 139 44 218 90 288 166 67 72 105 144 124 234 l5 25 160 0 160 0 11 -44z"/>
<path d="M2661 4301 c-28 -28 -29 -93 -2 -120 11 -11 41 -22 68 -26 218 -29 434 -165 589 -373 73 -97 79 -102 126 -102 51 0 78 27 78 79 0 32 -10 53 -58 118 -190 254 -459 424 -698 440 -74 5 -83 4 -103 -16z"/>
<path d="M1418 3510 c-32 -20 -50 -107 -55 -268 -6 -175 5 -268 47 -385 111 -303 376 -485 771 -529 132 -15 171 -5 222 52 49 53 63 108 48 184 -32 155 -127 381 -224 529 -132 202 -321 348 -522 403 -74 20 -263 29 -287 14z"/>
<path d="M3479 3504 c-348 -63 -613 -340 -772 -809 -64 -189 -55 -280 37 -347 l41 -30 110 5 c131 7 229 27 347 71 127 48 192 90 294 192 79 78 98 104 137 185 64 134 78 198 84 379 6 193 -11 312 -52 348 -31 26 -104 29 -226 6z"/>
<path d="M2180 2060 c-13 -13 -20 -33 -20 -59 0 -52 33 -91 112 -130 l61 -31 226 0 c216 0 228 1 276 24 28 12 67 39 88 58 31 30 37 42 37 77 0 54 -26 81 -80 81 -30 0 -48 -7 -75 -31 -46 -41 -84 -49 -245 -49 -161 0 -199 8 -245 49 -44 38 -103 43 -135 11z"/>
<path d="M287 2439 c-29 -17 -47 -71 -53 -166 -17 -230 76 -418 253 -511 125 -66 318 -94 382 -56 18 10 41 38 53 63 20 41 20 49 9 105 -44 214 -195 437 -349 515 -103 52 -249 77 -295 50z"/>
<path d="M3607 1958 c-30 -30 -42 -103 -35 -216 13 -199 135 -333 343 -377 89 -19 129 -19 169 0 84 40 89 141 16 303 -87 191 -223 299 -392 310 -71 4 -78 3 -101 -20z"/>
<path d="M4642 1964 c-63 -17 -82 -26 -145 -71 -84 -62 -172 -206 -212 -350 -22 -80 -8 -135 44 -170 91 -61 322 5 430 123 71 78 96 151 96 284 0 120 -6 151 -37 180 -26 24 -96 26 -176 4z"/>
<path d="M472 4457 c-14 -15 -22 -36 -22 -58 0 -60 -28 -168 -57 -221 -33 -61 -80 -94 -147 -104 -62 -9 -86 -32 -86 -84 0 -49 24 -76 77 -86 124 -22 195 -135 209 -333 8 -106 25 -131 90 -131 56 0 84 33 84 97 0 54 25 179 46 230 35 84 81 123 159 137 53 10 85 41 85 81 0 47 -31 81 -81 89 -48 8 -107 36 -131 63 -38 41 -70 133 -75 214 -7 102 -26 129 -87 129 -32 0 -48 -6 -64 -23z"/>
<path d="M4501 3981 c-11 -11 -22 -40 -26 -68 -21 -166 -42 -227 -100 -292 -37 -40 -66 -53 -147 -66 -45 -7 -68 -36 -68 -85 0 -38 32 -80 61 -80 130 -1 249 -172 249 -360 0 -71 16 -127 40 -140 24 -13 76 -13 100 0 21 11 40 67 40 118 0 60 31 186 62 250 35 76 87 118 156 128 61 8 92 36 92 84 0 49 -23 78 -68 85 -73 12 -121 36 -160 80 -45 51 -82 151 -82 223 0 64 -17 120 -40 132 -31 17 -88 12 -109 -9z"/>
</g>
</svg>
