<svg
   xmlns:dc="http://purl.org/dc/elements/1.1/"
   xmlns:cc="http://creativecommons.org/ns#"
   xmlns:rdf="http://www.w3.org/1999/02/22-rdf-syntax-ns#"
   xmlns:svg="http://www.w3.org/2000/svg"
   xmlns="http://www.w3.org/2000/svg"
   xmlns:sodipodi="http://sodipodi.sourceforge.net/DTD/sodipodi-0.dtd"
   xmlns:inkscape="http://www.inkscape.org/namespaces/inkscape"
   width="106.66773mm"
   height="114.06464mm"
   viewBox="0 0 377.95653 404.16606"
   id="svg8761"
   version="1.1"
   inkscape:version="0.91 r13725"
   sodipodi:docname="circle.svg">
  <defs
     id="defs8763" />
  <sodipodi:namedview
     id="base"
     pagecolor="#ffffff"
     bordercolor="#666666"
     borderopacity="1.0"
     inkscape:pageopacity="0.0"
     inkscape:pageshadow="2"
     inkscape:zoom="0.35"
     inkscape:cx="183.97829"
     inkscape:cy="233.51155"
     inkscape:document-units="mm"
     inkscape:current-layer="layer1"
     showgrid="false"
     fit-margin-top="0"
     fit-margin-left="0"
     fit-margin-right="0"
     fit-margin-bottom="0"
     inkscape:window-width="1024"
     inkscape:window-height="538"
     inkscape:window-x="-8"
     inkscape:window-y="-8"
     inkscape:window-maximized="1" />
  <metadata
     id="metadata8766">
    <rdf:RDF>
      <cc:Work
         rdf:about="">
        <dc:format>image/svg+xml</dc:format>
        <dc:type
           rdf:resource="http://purl.org/dc/dcmitype/StillImage" />
        <dc:title></dc:title>
      </cc:Work>
    </rdf:RDF>
  </metadata>
  <g
     inkscape:label="Layer 1"
     inkscape:groupmode="layer"
     id="layer1"
     transform="translate(-191.02171,-361.70771)">
    <g
       transform="matrix(3.7795276,0,0,3.7795276,2672.3035,1497.2543)"
       id="g107965">
      <path
         d="m -656.5058,-300.4467 0,4.1305 30.1873,0 a 50,50 0 0 1 19.8127,-4.1305 z m 50,0 a 50,50 0 0 1 19.8949,4.1305 l 30.1052,0 0,-4.1305 z m -50,5.6394 0,3.715 20.9305,0 a 50,50 0 0 1 6.074,-3.715 z m 73.0596,0 a 50,50 0 0 1 6.0565,3.715 l 20.884,0 0,-3.715 z m -73.0596,5.4725 0,3.3032 14.9236,0 a 50,50 0 0 1 3.6654,-3.3032 z m 81.4219,0 a 50,50 0 0 1 3.6979,3.3032 l 14.8803,0 0,-3.3032 z m -81.4219,5.671 0,2.8898 10.2831,0 a 50,50 0 0 1 2.3833,-2.8898 z m 87.3678,0 a 50,50 0 0 1 2.3802,2.8898 l 10.2521,0 0,-2.8898 z m -87.3678,5.4725 0,2.4779 6.8662,0 a 50,50 0 0 1 1.5565,-2.4779 z m 91.5934,0 a 50,50 0 0 1 1.5482,2.4779 l 6.8585,0 0,-2.4779 z m -91.5934,5.5868 0,2.0655 4.2524,0 a 50,50 0 0 1 0.9442,-2.0655 z m 94.8195,0 a 50,50 0 0 1 0.9648,2.0655 l 4.2158,0 0,-2.0655 z m -94.8195,5.4725 0,1.6537 2.3244,0 a 50,50 0 0 1 0.5782,-1.6537 z m 97.131,0 a 50,50 0 0 1 0.554,1.6537 l 2.3151,0 0,-1.6537 z m -97.131,5.671 0,1.2382 0.9984,0 a 50,50 0 0 1 0.2341,-1.2382 z m 98.7676,0 a 50,50 0 0 1 0.2635,1.2382 l 0.969,0 0,-1.2382 z m -98.7676,5.4059 0,0.8258 0.2578,0 a 50,50 0 0 1 0.093,-0.8258 z m 99.6807,0 a 50,50 0 0 1 0.087,0.8258 l 0.2326,0 0,-0.8258 z m -99.6807,5.6373 0,0.4145 0.016,0 a 50,50 0 0 1 -0.015,-0.4145 z m 99.999,0 a 50,50 0 0 1 -0.015,0.4145 l 0.017,0 0,-0.4145 z m -99.999,5.0612 0,0.8258 0.3855,0 a 50,50 0 0 1 -0.093,-0.8258 z m 99.7076,0 a 50,50 0 0 1 -0.093,0.8258 l 0.3855,0 0,-0.8258 z m -99.7076,5.2571 0,1.2376 1.3766,0 a 50,50 0 0 1 -0.2702,-1.2376 z m 98.8937,0 a 50,50 0 0 1 -0.2703,1.2376 l 1.3767,0 0,-1.2376 z m -98.8937,4.9924 0,1.6511 3.0096,0 a 50,50 0 0 1 -0.5777,-1.6511 z m 97.5677,0 a 50,50 0 0 1 -0.5778,1.6511 l 3.0102,0 0,-1.6511 z m -97.5677,5.225 0,2.0635 5.4451,0 a 50,50 0 0 1 -0.9865,-2.0635 z m 95.5414,0 a 50,50 0 0 1 -0.9865,2.0635 l 5.4452,0 0,-2.0635 z m -95.5414,5.0612 0,2.4774 8.6485,0 a 50,50 0 0 1 -1.5564,-2.4774 z m 92.908,0 a 50,50 0 0 1 -1.557,2.4774 l 8.6491,0 0,-2.4774 z m -92.908,5.2571 0,2.8892 13.1439,0 a 50,50 0 0 1 -2.4505,-2.8892 z m 89.3067,0 a 50,50 0 0 1 -2.4505,2.8892 l 13.1439,0 0,-2.8892 z m -89.3067,5.0586 0,3.3031 19.0329,0 a 50,50 0 0 1 -3.7527,-3.3031 z m 84.7199,0 a 50,50 0 0 1 -3.7528,3.3031 l 19.033,0 0,-3.3031 z m -84.7199,5.257 0,3.7171 28.0546,0 a 50,50 0 0 1 -6.3743,-3.7171 z m 78.3192,0 a 50,50 0 0 1 -6.3737,3.7171 l 28.0546,0 0,-3.7171 z m -78.3192,5.0607 0,4.1289 100.0001,0 0,-4.1289 -31.0813,0 a 50,50 0 0 1 -18.9188,3.7409 50,50 0 0 1 -18.9187,-3.7409 z"
         style="color:#000000;fill:#000000;stroke-width:1.00432003"
         id="path51978-76"
         inkscape:connector-curvature="0" />
      <path
         d="m -607.0736,-293.4683 a 50,50 0 0 0 -19.25,4.1114 l 39.718,0 a 50,50 0 0 0 -18.4924,-4.1114 z m -22.1087,5.4493 a 50,50 0 0 0 -6.1459,3.7015 l 57.6828,0 a 50,50 0 0 0 -6.1283,-3.7015 z m -8.7406,5.6466 a 50,50 0 0 0 -3.6504,3.2892 l 70.1787,0 a 50,50 0 0 0 -3.683,-3.2892 z m -5.7309,5.4493 a 50,50 0 0 0 -2.4014,2.8789 l 79.1223,0 a 50,50 0 0 0 -2.4004,-2.8789 z m -4.4013,5.6446 a 50,50 0 0 0 -1.5497,2.4666 l 86.2081,0 a 50,50 0 0 0 -1.5451,-2.4666 z m -3.1589,5.4509 a 50,50 0 0 0 -0.9561,2.0551 l 91.3619,0 a 50,50 0 0 0 -0.9658,-2.0551 z m -2.3756,5.6136 a 50,50 0 0 0 -0.5752,1.6443 l 95.3286,0 a 50,50 0 0 0 -0.553,-1.6443 z m -1.6051,5.3826 a 50,50 0 0 0 -0.2501,1.2325 l 97.9046,0 a 50,50 0 0 0 -0.2713,-1.2325 z m -0.9508,5.6446 a 50,50 0 0 0 -0.091,0.8093 l 0,0.013 99.4896,0 a 50,50 0 0 0 -0.089,-0.8221 z m -0.214,5.4514 0,0.4097 99.5707,0 0,-0.4097 z m 0.2817,5.2028 0,0.8226 99.2022,0 a 50,50 0 0 0 0.092,-0.8226 z m 0.5984,4.9707 a 50,50 0 0 0 0.2361,1.2325 l 97.4742,0 a 50,50 0 0 0 0.2362,-1.2325 z m 1.3431,5.2343 a 50,50 0 0 0 0.5756,1.6449 l 94.1095,0 a 50,50 0 0 0 0.5757,-1.6449 z m 1.9295,5.0374 a 50,50 0 0 0 0.9493,2.0568 l 89.5026,0 a 50,50 0 0 0 0.9493,-2.0568 z m 2.62,5.1522 a 50,50 0 0 0 1.5509,2.467 l 83.06,0 a 50,50 0 0 0 1.5503,-2.467 z m 3.4107,5.0389 a 50,50 0 0 0 2.3812,2.8789 l 74.5774,0 a 50,50 0 0 0 2.3818,-2.8789 z m 4.6343,5.2349 a 50,50 0 0 0 3.6551,3.2887 l 62.7616,0 a 50,50 0 0 0 3.655,-3.2887 z m 5.9924,5.0389 a 50,50 0 0 0 6.0524,3.699 l 45.9817,0 a 50,50 0 0 0 6.0528,-3.699 z m 9.2253,5.2028 a 50,50 0 0 0 19.2386,4.1114 l 1.1586,0 a 50,50 0 0 0 19.2386,-4.1114 z"
         style="color:#000000;fill:#000000;stroke-width:1"
         id="path3761-7"
         inkscape:connector-curvature="0" />
    </g>
  </g>
</svg>
